<svg viewBox="0 0 240 240" xmlns="http://www.w3.org/2000/svg">
  <defs>
    <path id="arc" d="M 36,92 A 90,90 0 0 1 204,92" fill="none"/>
    <clipPath id="inner"><circle cx="120" cy="120" r="80"/></clipPath>
  </defs>
  <circle cx="120" cy="120" r="119" fill="#0b0b0b"/>
  <circle cx="120" cy="120" r="113" fill="none" stroke="#ffffff" stroke-width="5"/>
  <circle cx="120" cy="120" r="108" fill="#0b0b0b"/>
  <circle cx="120" cy="120" r="82" fill="none" stroke="#ffffff" stroke-width="4"/>
  <circle cx="120" cy="120" r="80" fill="#ffffff"/>
  <text fill="#C8102E" font-family="Arial, Helvetica, sans-serif" font-size="30" font-weight="800" letter-spacing="7">
    <textPath href="#arc" startOffset="50%" text-anchor="middle">LOVEJOY</textPath>
  </text>
  <path d="M88 82 C 116 56 156 46 176 44 C 156 55 122 69 106 80 C 100 84 93 87 88 82 Z" fill="#ffffff" stroke="#0b0b0b" stroke-width="1.5" stroke-linejoin="round"/>
  <g clip-path="url(#inner)">
    <g transform="rotate(42 120 120)" fill="#0b0b0b">
      <rect x="116" y="44" width="8" height="150" rx="3"/>
      <path d="M120 36 L124 50 L116 50 Z"/>
      <rect x="124" y="52" width="5" height="4"/><rect x="124" y="60" width="5" height="4"/><rect x="124" y="68" width="5" height="4"/>
      <path d="M112 176 q-8 6 -6 18 l14 0 0 -24 z"/>
      <rect x="112" y="150" width="16" height="6" rx="3"/>
    </g>
    <g transform="rotate(-42 120 120)" fill="#0b0b0b">
      <rect x="116" y="44" width="8" height="150" rx="3"/>
      <path d="M120 36 L124 50 L116 50 Z"/>
      <rect x="124" y="52" width="5" height="4"/><rect x="124" y="60" width="5" height="4"/><rect x="124" y="68" width="5" height="4"/>
      <path d="M112 176 q-8 6 -6 18 l14 0 0 -24 z"/>
      <rect x="112" y="150" width="16" height="6" rx="3"/>
    </g>
  </g>
  <g fill="#C8102E" font-family="Arial, Helvetica, sans-serif" font-weight="900" text-anchor="middle">
    <text x="74" y="138" font-size="50">T</text>
    <text x="166" y="138" font-size="50">F</text>
    <text x="120" y="182" font-size="50">C</text>
  </g>
</svg>
